<?xml version="1.0" encoding="utf-8"?>
<!-- Generator: Adobe Illustrator 24.3.0, SVG Export Plug-In . SVG Version: 6.00 Build 0)  -->
<svg version="1.1" id="Layer_1" xmlns="http://www.w3.org/2000/svg" xmlns:xlink="http://www.w3.org/1999/xlink" x="0px" y="0px"
	 viewBox="0 0 417 357" style="enable-background:new 0 0 417 357;" xml:space="preserve">
<style type="text/css">
	.st0{fill:#FF4773;}
	.st1{fill:none;}
	.st2{fill:none;stroke:#FF4773;stroke-width:23;}
	.st3{fill:#27303D;}
</style>
<g id="Group_518" transform="translate(-222.5 -206.5)">
	<path id="Path_1343" class="st0" d="M530.4,351.2c-2.7-2.4-4.1-5.8-4-9.3c-0.2-3.5,1.3-6.9,4-9.3c2.6-2.3,6.2-3.4,10.7-3.4
		c4.4,0,7.9,1.1,10.6,3.4c2.7,2.3,4.2,5.7,4,9.3c0.1,3.5-1.3,7-4,9.3c-2.6,2.3-6.2,3.5-10.7,3.5
		C536.6,354.7,533.1,353.5,530.4,351.2z M531.6,438c-2.5-2-3.8-5.1-3.8-9.2v-51.4c0-4.1,1.3-7.2,3.8-9.2c5.7-4.1,13.3-4.1,19,0
		c2.5,2,3.8,5.1,3.8,9.2v51.4c0,4.1-1.3,7.1-3.8,9.2C545,442.1,537.3,442.1,531.6,438z"/>
	<path id="Path_1344" class="st0" d="M628.7,431.1c0.2,3.1-1.4,6.1-4,7.8c-2.7,1.7-6.5,2.4-11.5,2.1l-4.2-0.3
		c-9-0.7-15.8-3.4-20.4-8.1s-6.9-11.3-6.9-19.8v-26.5h-4.3c-8,0-12-3.3-12-9.9c0-6.5,4-9.7,12-9.7h4.3V357c-0.2-3.4,1.1-6.7,3.6-9
		c2.4-2.2,5.6-3.4,9.7-3.4c4.1,0,7.3,1.1,9.7,3.4c2.4,2.4,3.7,5.7,3.6,9v9.7h8.2c8,0,12,3.2,12,9.7c0,6.6-4,9.9-12,9.9h-8.2v28.7
		c0,1.8,0.6,3.5,1.7,4.8c1.1,1.3,2.7,2,4.4,2.1l4.3,0.3C625.4,422.5,628.7,425.5,628.7,431.1z"/>
	<g id="Rectangle_434" transform="translate(492.173 206.5) rotate(90)">
		<path class="st1" d="M62.1-13.6h235.8c27.6,0,50,22.4,50,50v169.7c0,27.6-22.4,50-50,50H62.1c-27.6,0-50-22.4-50-50V36.4
			C12.1,8.8,34.5-13.6,62.1-13.6z"/>
		<path class="st2" d="M62.1-2.1h235.8c21.3,0,38.5,17.2,38.5,38.5v169.7c0,21.3-17.2,38.5-38.5,38.5H62.1
			c-21.3,0-38.5-17.2-38.5-38.5V36.4C23.6,15.1,40.9-2.1,62.1-2.1z"/>
	</g>
	<g id="Group_485" transform="translate(264.66 318.826)">
		<path id="Path_1352" class="st3" d="M102.9,17.9c2-1.2,4.3-1.8,6.6-1.8c3.5,0,7,1.2,9.7,3.4c2.8,2,4.4,5.3,4.3,8.7
			c0,1.8-0.5,3.6-1.3,5.2L82.7,115c-1.2,2.6-3.3,4.8-5.8,6.2c-5.2,2.9-11.5,2.9-16.7,0c-2.6-1.4-4.6-3.6-5.8-6.2L14.8,33.5
			c-0.8-1.6-1.2-3.4-1.2-5.2c0-3.4,1.7-6.6,4.5-8.6c2.8-2.3,6.4-3.5,10-3.5c2.3,0,4.6,0.6,6.6,1.8c2.1,1.3,3.7,3.1,4.7,5.4L68.9,87
			l29.3-63.7C99.2,21.1,100.8,19.2,102.9,17.9z"/>
		<path id="Path_1353" class="st3" d="M137.3,32.6c-2.3-2.3-3.6-5.4-3.4-8.7c-0.1-3.2,1.1-6.4,3.4-8.6c2.5-2.2,5.8-3.4,9.1-3.2
			c3.4-0.2,6.7,1,9.2,3.2c2.4,2.2,3.7,5.4,3.5,8.6c0.1,3.3-1.1,6.4-3.5,8.7c-2.5,2.3-5.8,3.4-9.2,3.3
			C143.1,36,139.8,34.9,137.3,32.6z M166.9,32.6c-2.3-2.3-3.6-5.4-3.4-8.7c-0.1-3.2,1.1-6.4,3.4-8.6c5.3-4.3,12.9-4.3,18.2,0
			c2.4,2.2,3.7,5.4,3.5,8.6c0.1,3.2-1.1,6.4-3.4,8.7C179.8,37,172.2,37,166.9,32.6L166.9,32.6z"/>
		<g id="Group_484" transform="translate(110.327 35.12)">
			<path id="Path_1351" class="st3" d="M50.9,87.9c-20.6,0-37.3-16.7-37.3-37.3V24.3c0-7.3,5.9-12.2,13.3-12.2S40.1,17,40.1,24.3
				v26.3c0,5.9,4.8,10.7,10.7,10.7s10.7-4.8,10.7-10.7l0,0V24.3c0-7.3,5.9-12.2,13.3-12.2S88.2,17,88.2,24.3v26.3
				C88.1,71.2,71.5,87.9,50.9,87.9z"/>
		</g>
	</g>
</g>
</svg>
